<?xml version="1.0" encoding="utf-8"?>
<svg xmlns="http://www.w3.org/2000/svg" style="margin: auto; background: rgb(241, 242, 243); display: block; shape-rendering: auto;" width="500" height="206" preserveAspectRatio="xMidYMid">
<style type="text/css">
  text {
    text-anchor: middle; font-size: 122px; opacity: 0;
  }
</style>
<g transform="translate(250,103)">
  <g transform="translate(0,0)"><g class="path" style="transform-origin: -159.15px 4.605px; animation: breath-eb699e3b-b7da-49d8-9467-21aff87fbfb0 1s linear -0.586667s infinite normal forwards running; transform: scale(0.91);"><path d="M85.16 5.49L85.16 5.49L87.72 5.49L87.72 5.49Q87.72 24.77 67.59 24.77L67.59 24.77L67.59 24.77Q61.24 24.52 53.56 20.92L53.56 20.92L53.56 20.92Q45.87 17.32 39.89 13.18L39.89 13.18L39.89 13.18Q33.92 9.03 26.23 5.55L26.23 5.55L26.23 5.55Q18.54 2.07 12.20 2.07L12.20 2.07L12.20 2.07Q9.64 2.07 7.93 2.87L7.93 2.87L7.93 2.87Q6.22 3.66 5.86 4.39L5.86 4.39L5.37 5.12L2.56 5.12L2.56 5.12Q3.05-1.59 6.83-5.25L6.83-5.25L6.83-5.25Q10.61-8.91 16.96-8.91L16.96-8.91L16.96-8.91Q22.08-8.91 26.11-7.69L26.11-7.69L27.33-7.32L67.95-48.43L67.95-48.43Q61.73-50.14 47.52-58.01L47.52-58.01L47.52-58.01Q33.31-65.88 27.51-65.88L27.51-65.88L27.51-65.88Q21.72-65.88 18.79-63.20L18.79-63.20L18.79-61.49L18.79-61.49Q18.79-54.90 23.06-51.48L23.06-51.48L23.06-51.48Q26.84-48.43 29.65-47.82L29.65-47.82L30.87-47.46L30.26-45.38L30.26-45.38Q29.28-45.63 28.49-45.93L28.49-45.93L28.49-45.93Q27.69-46.24 26.60-46.60L26.60-46.60L26.60-46.60Q25.50-46.97 24.40-47.70L24.40-47.70L24.40-47.70Q23.30-48.43 22.14-49.29L22.14-49.29L22.14-49.29Q20.98-50.14 19.95-51.36L19.95-51.36L19.95-51.36Q18.91-52.58 18.06-53.92L18.06-53.92L18.06-53.92Q16.35-57.10 16.35-61.49L16.35-61.49L16.35-61.49Q16.35-69.54 21.17-73.99L21.17-73.99L21.17-73.99Q25.99-78.45 34.77-78.45L34.77-78.45L34.77-78.45Q39.53-78.45 44.23-76.80L44.23-76.80L44.23-76.80Q48.92-75.15 51.42-73.63L51.42-73.63L51.42-73.63Q53.92-72.10 58.25-69.11L58.25-69.11L58.25-69.11Q62.59-66.12 64.66-64.84L64.66-64.84L64.66-64.84Q66.73-63.56 70.45-62.16L70.45-62.16L70.45-62.16Q74.18-60.76 78.63-60.76L78.63-60.76L78.63-60.76Q83.08-60.76 86.38-62.22L86.38-62.22L86.38-62.22Q89.67-63.68 90.28-65.15L90.28-65.15L90.89-66.49L93.82-66.61L93.82-66.61Q93.82-61.98 92.54-58.01L92.54-58.01L92.54-58.01Q91.26-54.05 86.86-50.75L86.86-50.75L86.86-50.75Q82.47-47.46 75.27-47.46L75.27-47.46L75.27-47.46Q72.96-47.46 70.76-47.82L70.76-47.82L30.01-6.47L30.01-6.47Q35.50-4.39 43.74 0.98L43.74 0.98L43.74 0.98Q51.97 6.34 59.48 9.88L59.48 9.88L59.48 9.88Q66.98 13.42 74.36 13.42L74.36 13.42L74.36 13.42Q81.74 13.42 84.55 10.61L84.55 10.61L84.55 10.61Q85.16 7.93 85.16 5.49" fill="#f43f0a" stroke="none" stroke-width="none" transform="translate(-207.33999633789062,31.445)" style="fill: rgb(241, 54, 0);"></path></g><g class="path" style="transform-origin: -90.345px 8.265px; animation: breath-eb699e3b-b7da-49d8-9467-21aff87fbfb0 1s linear -0.513333s infinite normal forwards running; transform: scale(0.91);"><path d="M122.37-47.46L122.37-47.46L122.37-47.46Q137.86-47.46 137.86-35.14L137.86-35.14L137.86-35.14Q137.86-27.45 130.60-23.48L130.60-23.48L130.60-23.48Q123.34-19.52 109.92-19.40L109.92-19.40L109.92-19.40Q109.68-15.01 109.68-12.44L109.68-12.44L109.68-12.44Q109.68-6.95 112.18-4.33L112.18-4.33L112.18-4.33Q114.68-1.71 118.46-1.71L118.46-1.71L118.46-1.71Q122.24-1.71 125.36-3.17L125.36-3.17L125.36-3.17Q128.47-4.64 130.30-6.65L130.30-6.65L130.30-6.65Q132.13-8.66 133.47-10.86L133.47-10.86L133.47-10.86Q135.91-14.88 135.91-15.98L135.91-15.98L138.10-15.01L138.10-15.01Q137.74-13.05 135.91-9.82L135.91-9.82L135.91-9.82Q134.08-6.59 131.88-4.51L131.88-4.51L131.88-4.51Q129.69-2.44 125.42-0.67L125.42-0.67L125.42-0.67Q121.15 1.10 115.90 1.10L115.90 1.10L115.90 1.10Q106.02 1.10 100.95-3.60L100.95-3.60L100.95-3.60Q95.89-8.30 95.89-16.47L95.89-16.47L95.89-16.47Q95.89-30.99 103.09-39.22L103.09-39.22L103.09-39.22Q110.29-47.46 122.37-47.46zM134.81-35.14L134.81-35.14Q134.81-39.16 132.43-41.78L132.43-41.78L132.43-41.78Q130.05-44.41 125.36-44.41L125.36-44.41L125.36-44.41Q120.66-44.41 116.20-38.80L116.20-38.80L116.20-38.80Q111.75-33.18 110.29-22.20L110.29-22.20L110.29-22.20Q134.81-22.33 134.81-35.14L134.81-35.14" fill="#f43f0a" stroke="none" stroke-width="none" transform="translate(-207.33999633789062,31.445)" style="fill: rgb(244, 63, 10);"></path></g><g class="path" style="transform-origin: -45.265px -7.535px; animation: breath-eb699e3b-b7da-49d8-9467-21aff87fbfb0 1s linear -0.44s infinite normal forwards running; transform: scale(0.91);"><path d="M166.77-4.39L166.77-4.39L166.77-4.39Q165.19-2.32 162.44-0.61L162.44-0.61L162.44-0.61Q159.70 1.10 155.31 1.10L155.31 1.10L155.31 1.10Q150.91 1.10 147.86-1.71L147.86-1.71L147.86-1.71Q144.81-4.51 144.81-9.64L144.81-9.64L144.81-9.64Q144.81-10.61 145.06-12.81L145.06-12.81L152.99-56.73L152.99-56.73Q155.18-68.81 159.03-73.93L159.03-73.93L159.03-73.93Q162.87-79.06 169.21-79.06L169.21-79.06L169.21-79.06Q173.61-79.06 176.47-75.76L176.47-75.76L176.47-75.76Q179.34-72.47 179.34-65.76L179.34-65.76L179.34-65.76Q179.34-59.05 174.16-46.60L174.16-46.60L174.16-46.60Q168.97-34.16 168.97-28.43L168.97-28.43L166.77-28.43L166.77-28.43Q166.77-34.89 171.90-46.91L171.90-46.91L171.90-46.91Q177.02-58.93 177.02-66.12L177.02-66.12L177.02-66.12Q177.02-70.52 175.01-73.69L175.01-73.69L175.01-73.69Q173.00-76.86 170.07-76.86L170.07-76.86L170.07-76.86Q169.95-73.69 165.86-48.37L165.86-48.37L165.86-48.37Q161.77-23.06 157.75-1.34L157.75-1.34L157.75-1.34Q161.16-1.34 164.09-4.88L164.09-4.88L164.09-4.88Q167.02-8.42 168.24-11.96L168.24-11.96L169.58-15.62L171.78-14.64L171.78-14.64Q171.41-12.93 169.88-9.70L169.88-9.70L169.88-9.70Q168.36-6.47 166.77-4.39" fill="#f43f0a" stroke="none" stroke-width="none" transform="translate(-207.33999633789062,31.445)" style="fill: rgb(227, 51, 17);"></path></g><g class="path" style="transform-origin: -7.995px 8.265px; animation: breath-eb699e3b-b7da-49d8-9467-21aff87fbfb0 1s linear -0.366667s infinite normal forwards running; transform: scale(0.91);"><path d="M204.72-47.46L204.72-47.46L204.72-47.46Q220.21-47.46 220.21-35.14L220.21-35.14L220.21-35.14Q220.21-27.45 212.95-23.48L212.95-23.48L212.95-23.48Q205.69-19.52 192.27-19.40L192.27-19.40L192.27-19.40Q192.03-15.01 192.03-12.44L192.03-12.44L192.03-12.44Q192.03-6.95 194.53-4.33L194.53-4.33L194.53-4.33Q197.03-1.71 200.81-1.71L200.81-1.71L200.81-1.71Q204.59-1.71 207.70-3.17L207.70-3.17L207.70-3.17Q210.82-4.64 212.65-6.65L212.65-6.65L212.65-6.65Q214.48-8.66 215.82-10.86L215.82-10.86L215.82-10.86Q218.26-14.88 218.26-15.98L218.26-15.98L220.45-15.01L220.45-15.01Q220.09-13.05 218.26-9.82L218.26-9.82L218.26-9.82Q216.43-6.59 214.23-4.51L214.23-4.51L214.23-4.51Q212.04-2.44 207.77-0.67L207.77-0.67L207.77-0.67Q203.50 1.10 198.25 1.10L198.25 1.10L198.25 1.10Q188.37 1.10 183.31-3.60L183.31-3.60L183.31-3.60Q178.24-8.30 178.24-16.47L178.24-16.47L178.24-16.47Q178.24-30.99 185.44-39.22L185.44-39.22L185.44-39.22Q192.64-47.46 204.72-47.46zM217.16-35.14L217.16-35.14Q217.16-39.16 214.78-41.78L214.78-41.78L214.78-41.78Q212.40-44.41 207.70-44.41L207.70-44.41L207.70-44.41Q203.01-44.41 198.56-38.80L198.56-38.80L198.56-38.80Q194.10-33.18 192.64-22.20L192.64-22.20L192.64-22.20Q217.16-22.33 217.16-35.14L217.16-35.14" fill="#f43f0a" stroke="none" stroke-width="none" transform="translate(-207.33999633789062,31.445)" style="fill: rgb(241, 54, 0);"></path></g><g class="path" style="transform-origin: 47.21px 8.265px; animation: breath-eb699e3b-b7da-49d8-9467-21aff87fbfb0 1s linear -0.293333s infinite normal forwards running; transform: scale(0.91);"><path d="M274.01-1.34L274.01-1.34L274.01-1.34Q276.94-1.34 280.11-4.76L280.11-4.76L281.94-3.29L281.94-3.29Q281.09-1.59 278.16-0.24L278.16-0.24L278.16-0.24Q275.23 1.10 271.69 1.10L271.69 1.10L271.69 1.10Q260.59 1.10 260.59-8.91L260.59-8.91L260.59-8.91Q260.59-13.18 262.79-24.16L262.79-24.16L262.79-24.16Q264.98-35.14 264.98-38.55L264.98-38.55L264.98-38.55Q264.98-43.80 259.98-43.80L259.98-43.80L259.98-43.80Q255.96-43.80 252.23-38.55L252.23-38.55L252.23-38.55Q248.51-33.31 246.07-24.16L246.07-24.16L241.93-1.34L241.93-1.34Q245.71-1.71 248.15-4.76L248.15-4.76L249.98-3.29L249.98-3.29Q246.32 1.10 240.83 1.10L240.83 1.10L240.83 1.10Q235.34 1.10 232.23-1.71L232.23-1.71L232.23-1.71Q229.12-4.51 229.12-9.03L229.12-9.03L229.12-9.03Q229.12-10.74 231.07-22.45L231.07-22.45L235.09-45.02L235.09-45.02Q231.43-44.65 228.99-41.60L228.99-41.60L227.16-43.07L227.16-43.07Q230.82-47.46 236.38-47.46L236.38-47.46L236.38-47.46Q241.93-47.46 244.98-44.65L244.98-44.65L244.98-44.65Q248.03-41.85 248.03-36.72L248.03-36.72L248.03-35.99L248.03-35.99Q253.03-47.46 263.64-47.46L263.64-47.46L263.64-47.46Q270.84-47.46 274.87-43.37L274.87-43.37L274.87-43.37Q278.89-39.28 278.89-32.09L278.89-32.09L278.89-32.09Q278.89-28.30 276.57-17.51L276.57-17.51L276.57-17.51Q274.26-6.71 274.01-1.34" fill="#f43f0a" stroke="none" stroke-width="none" transform="translate(-207.33999633789062,31.445)" style="fill: rgb(244, 63, 10);"></path></g><g class="path" style="transform-origin: 104.25px 8.265px; animation: breath-eb699e3b-b7da-49d8-9467-21aff87fbfb0 1s linear -0.22s infinite normal forwards running; transform: scale(0.91);"><path d="M306.83 1.10L306.83 1.10Q297.44 1.10 292.56-3.60L292.56-3.60L292.56-3.60Q287.68-8.30 287.68-15.43L287.68-15.43L287.68-15.43Q287.68-22.57 288.96-27.63L288.96-27.63L288.96-27.63Q290.24-32.70 293.17-37.39L293.17-37.39L293.17-37.39Q296.09-42.09 302.01-44.77L302.01-44.77L302.01-44.77Q307.93-47.46 316.77-47.46L316.77-47.46L316.77-47.46Q325.62-47.46 330.56-42.76L330.56-42.76L330.56-42.76Q335.50-38.06 335.50-29.89L335.50-29.89L335.50-29.89Q335.50-15.98 328.12-7.44L328.12-7.44L328.12-7.44Q320.74 1.10 306.83 1.10L306.83 1.10zM301.46-11.47L301.46-11.47L301.46-11.47Q301.46-1.71 307.13-1.71L307.13-1.71L307.13-1.71Q312.81-1.71 317.26-11.53L317.26-11.53L317.26-11.53Q321.71-21.35 321.71-34.89L321.71-34.89L321.71-34.89Q321.71-45.14 316.16-45.14L316.16-45.14L316.16-45.14Q310.61-45.14 306.04-35.81L306.04-35.81L306.04-35.81Q301.46-26.47 301.46-11.47" fill="#f43f0a" stroke="none" stroke-width="none" transform="translate(-207.33999633789062,31.445)" style="fill: rgb(227, 51, 17);"></path></g><g class="path" style="transform-origin: 143.225px 23.58px; animation: breath-eb699e3b-b7da-49d8-9467-21aff87fbfb0 1s linear -0.146667s infinite normal forwards running; transform: scale(0.91);"><path d="M344.28-1.59L344.28-1.59L344.28-1.59Q341.72-4.15 341.72-7.81L341.72-7.81L341.72-7.81Q341.72-11.47 344.28-14.09L344.28-14.09L344.28-14.09Q346.85-16.71 350.51-16.71L350.51-16.71L350.51-16.71Q354.17-16.71 356.79-14.09L356.79-14.09L356.79-14.09Q359.41-11.47 359.41-7.81L359.41-7.81L359.41-7.81Q359.41-4.15 356.79-1.59L356.79-1.59L356.79-1.59Q354.17 0.98 350.51 0.98L350.51 0.98L350.51 0.98Q346.85 0.98 344.28-1.59" fill="#f43f0a" stroke="none" stroke-width="none" transform="translate(-207.33999633789062,31.445)" style="fill: rgb(241, 54, 0);"></path></g><g class="path" style="transform-origin: 172.145px 23.58px; animation: breath-eb699e3b-b7da-49d8-9467-21aff87fbfb0 1s linear -0.0733333s infinite normal forwards running; transform: scale(0.91);"><path d="M373.20-1.59L373.20-1.59L373.20-1.59Q370.64-4.15 370.64-7.81L370.64-7.81L370.64-7.81Q370.64-11.47 373.20-14.09L373.20-14.09L373.20-14.09Q375.76-16.71 379.42-16.71L379.42-16.71L379.42-16.71Q383.08-16.71 385.70-14.09L385.70-14.09L385.70-14.09Q388.33-11.47 388.33-7.81L388.33-7.81L388.33-7.81Q388.33-4.15 385.70-1.59L385.70-1.59L385.70-1.59Q383.08 0.98 379.42 0.98L379.42 0.98L379.42 0.98Q375.76 0.98 373.20-1.59" fill="#f43f0a" stroke="none" stroke-width="none" transform="translate(-207.33999633789062,31.445)" style="fill: rgb(244, 63, 10);"></path></g><g class="path" style="transform-origin: 201.055px 23.58px; animation: breath-eb699e3b-b7da-49d8-9467-21aff87fbfb0 1s linear 0s infinite normal forwards running; transform: scale(0.91);"><path d="M402.11-1.59L402.11-1.59L402.11-1.59Q399.55-4.15 399.55-7.81L399.55-7.81L399.55-7.81Q399.55-11.47 402.11-14.09L402.11-14.09L402.11-14.09Q404.67-16.71 408.33-16.71L408.33-16.71L408.33-16.71Q411.99-16.71 414.62-14.09L414.62-14.09L414.62-14.09Q417.24-11.47 417.24-7.81L417.24-7.81L417.24-7.81Q417.24-4.15 414.62-1.59L414.62-1.59L414.62-1.59Q411.99 0.98 408.33 0.98L408.33 0.98L408.33 0.98Q404.67 0.98 402.11-1.59" fill="#f43f0a" stroke="none" stroke-width="none" transform="translate(-207.33999633789062,31.445)" style="fill: rgb(227, 51, 17);"></path></g></g>
</g>
<style id="breath-eb699e3b-b7da-49d8-9467-21aff87fbfb0" data-anikit="">@keyframes breath-eb699e3b-b7da-49d8-9467-21aff87fbfb0
{
  0% {
    animation-timing-function: cubic-bezier(0.9647,0.2413,-0.0705,0.7911);
    transform: scale(0.9099999999999999);
  }
  51% {
    animation-timing-function: cubic-bezier(0.9226,0.2631,-0.0308,0.7628);
    transform: scale(1.02994);
  }
  100% {
    transform: scale(0.9099999999999999);
  }
}</style><style id="breath-eb699e3b-b7da-49d8-9467-21aff87fbfb0" data-anikit="">@keyframes breath-eb699e3b-b7da-49d8-9467-21aff87fbfb0
{
  0% {
    animation-timing-function: cubic-bezier(0.9647,0.2413,-0.0705,0.7911);
    transform: scale(0.9099999999999999);
  }
  51% {
    animation-timing-function: cubic-bezier(0.9226,0.2631,-0.0308,0.7628);
    transform: scale(1.02994);
  }
  100% {
    transform: scale(0.9099999999999999);
  }
}</style></svg>